<svg width="15" height="13" viewBox="0 0 15 13" fill="none" xmlns="http://www.w3.org/2000/svg">
<path d="M14.448 4.56655L10.2069 3.97489L8.31105 0.285415C8.25927 0.184399 8.17408 0.102625 8.06885 0.0529188C7.80493 -0.072148 7.48421 0.0320744 7.35225 0.285415L5.45637 3.97489L1.21526 4.56655C1.09833 4.58258 0.991428 4.6355 0.909579 4.71567C0.810629 4.81329 0.756102 4.94464 0.757982 5.08083C0.759861 5.21703 0.817992 5.34694 0.919602 5.44202L3.9881 8.31375L3.26315 12.3688C3.24615 12.4631 3.25703 12.5601 3.29454 12.6488C3.33206 12.7375 3.39471 12.8144 3.4754 12.8706C3.5561 12.9269 3.65159 12.9603 3.75107 12.9671C3.85055 12.9739 3.95002 12.9538 4.03821 12.9092L7.83165 10.9947L11.6251 12.9092C11.7287 12.9621 11.8489 12.9797 11.9642 12.9605C12.2548 12.9124 12.4503 12.6478 12.4002 12.3688L11.6752 8.31375L14.7437 5.44202C14.8272 5.36345 14.8823 5.26083 14.899 5.14859C14.9441 4.86799 14.7404 4.60824 14.448 4.56655Z" fill="#FFBE2E"/>
</svg>
